<svg width="297" height="280" viewBox="0 0 297 280" fill="none" xmlns="http://www.w3.org/2000/svg">
<path d="M69.6328 232.8V229.8L142.233 141.8V144.6L71.6328 57V54H178.633V57.8H75.4328L76.2328 56.4L145.033 141.8V144.8L74.2328 230.4L73.4328 229H179.633V232.8H69.6328Z" fill="black"/>
<path d="M63.096 161V156.68C59.928 156.616 57.32 156.168 55.272 155.336C53.256 154.504 51.672 153.432 50.52 152.12C49.4 150.776 48.6 149.336 48.12 147.8C47.672 146.232 47.448 144.712 47.448 143.24C47.448 141.544 47.704 139.912 48.216 138.344C48.728 136.776 49.576 135.384 50.76 134.168C51.944 132.92 53.544 131.928 55.56 131.192C57.576 130.424 60.088 130.024 63.096 129.992V126.728H67.368V129.992C70.408 130.024 72.936 130.408 74.952 131.144C76.968 131.88 78.552 132.856 79.704 134.072C80.888 135.288 81.736 136.696 82.248 138.296C82.76 139.864 83.016 141.512 83.016 143.24C83.016 144.776 82.776 146.328 82.296 147.896C81.816 149.464 80.984 150.904 79.8 152.216C78.648 153.496 77.048 154.552 75 155.384C72.984 156.184 70.44 156.616 67.368 156.68V161H63.096ZM63.096 153.128V133.64C60.216 133.704 57.944 134.168 56.28 135.032C54.648 135.864 53.496 136.984 52.824 138.392C52.152 139.8 51.816 141.4 51.816 143.192C51.816 145.08 52.184 146.76 52.92 148.232C53.688 149.704 54.888 150.872 56.52 151.736C58.184 152.568 60.376 153.032 63.096 153.128ZM67.368 153.128C70.152 153.032 72.36 152.552 73.992 151.688C75.656 150.792 76.84 149.608 77.544 148.136C78.28 146.664 78.648 145.016 78.648 143.192C78.648 141.368 78.312 139.752 77.64 138.344C76.968 136.936 75.816 135.816 74.184 134.984C72.552 134.152 70.28 133.704 67.368 133.64V153.128ZM88.9091 139.784V137.768H109.309V139.784H88.9091ZM88.9091 150.632V148.616H109.309V150.632H88.9091Z" fill="black"/>
<path d="M177.096 162V157.68C173.928 157.616 171.32 157.168 169.272 156.336C167.256 155.504 165.672 154.432 164.52 153.12C163.4 151.776 162.6 150.336 162.12 148.8C161.672 147.232 161.448 145.712 161.448 144.24C161.448 142.544 161.704 140.912 162.216 139.344C162.728 137.776 163.576 136.384 164.76 135.168C165.944 133.92 167.544 132.928 169.56 132.192C171.576 131.424 174.088 131.024 177.096 130.992V127.728H181.368V130.992C184.408 131.024 186.936 131.408 188.952 132.144C190.968 132.88 192.552 133.856 193.704 135.072C194.888 136.288 195.736 137.696 196.248 139.296C196.76 140.864 197.016 142.512 197.016 144.24C197.016 145.776 196.776 147.328 196.296 148.896C195.816 150.464 194.984 151.904 193.8 153.216C192.648 154.496 191.048 155.552 189 156.384C186.984 157.184 184.44 157.616 181.368 157.68V162H177.096ZM177.096 154.128V134.64C174.216 134.704 171.944 135.168 170.28 136.032C168.648 136.864 167.496 137.984 166.824 139.392C166.152 140.8 165.816 142.4 165.816 144.192C165.816 146.08 166.184 147.76 166.92 149.232C167.688 150.704 168.888 151.872 170.52 152.736C172.184 153.568 174.376 154.032 177.096 154.128ZM181.368 154.128C184.152 154.032 186.36 153.552 187.992 152.688C189.656 151.792 190.84 150.608 191.544 149.136C192.28 147.664 192.648 146.016 192.648 144.192C192.648 142.368 192.312 140.752 191.64 139.344C190.968 137.936 189.816 136.816 188.184 135.984C186.552 135.152 184.28 134.704 181.368 134.64V154.128Z" fill="black"/>
<path d="M199.92 130.32V128.336H208.304V130.32H199.92ZM213.387 138V121.2H215.659V138H213.387ZM214.539 117.488C214.069 117.488 213.675 117.328 213.355 117.008C213.035 116.688 212.875 116.304 212.875 115.856C212.875 115.408 213.035 115.035 213.355 114.736C213.675 114.416 214.069 114.256 214.539 114.256C215.008 114.256 215.403 114.405 215.723 114.704C216.043 115.003 216.203 115.376 216.203 115.824C216.203 116.293 216.043 116.688 215.723 117.008C215.424 117.328 215.029 117.488 214.539 117.488Z" fill="black"/>
</svg>
